<?xml version="1.0" encoding="UTF-8"?>
<svg width="22px" height="22px" viewBox="0 0 22 22" version="1.1" xmlns="http://www.w3.org/2000/svg" xmlns:xlink="http://www.w3.org/1999/xlink">
    <!-- Generator: Sketch 57.1 (83088) - https://sketch.com -->
    <title>Navigational/Home/Brown Copy</title>
    <desc>Created with Sketch.</desc>
    <g id="Ny-meny-NIB" stroke="none" stroke-width="1" fill="none" fill-rule="evenodd">
        <g id="New-NIB-menu-hover-full" transform="translate(-26.000000, -138.000000)" fill="#512B2B" fill-rule="nonzero">
            <g id="Navigational/Accounts-and-cards/Brown" transform="translate(26.000000, 138.000000)">
                <path d="M15.5833333,14.2083333 L15.5833333,16.0416667 C15.5833333,16.8847364 16.0416667,17.4166667 16.9583333,17.4166667 L22,17.4166667 L22,12.8333333 L16.9583333,12.8333333 C16.0416667,12.8333333 15.5833333,13.3281973 15.5833333,14.2083333 Z M20.1666667,8.25 C21.0375,8.25 21.9083333,9.07155156 21.9932396,9.95425223 L22,10.0940233 L22,11.9166667 L16.5,11.9166667 C15.612164,11.9166667 14.7454182,12.3286759 14.6717273,13.5748562 L14.6666667,13.75 L14.6666667,16.5080175 C14.6666667,17.4229554 15.5163776,18.2637423 16.3659775,18.3455337 L16.5,18.3520408 L22,18.3520408 L22,20.1559767 C22,21.0318878 21.1727083,21.9077988 20.3040521,21.9932002 L20.1666667,22 L8.25,22 C7.35609894,22 6.50602656,21.1187214 6.42325408,20.2867887 L6.41666667,20.1559767 L6.41666667,10.1104557 C6.41666667,9.21669947 7.24811036,8.3378479 8.1191466,8.2561744 L8.25,8.25 L20.1666667,8.25 Z M17.875,14.2083333 C18.403,14.2083333 18.7916667,14.598913 18.7916667,15.125 C18.7916667,15.651087 18.403,16.0416667 17.875,16.0416667 C17.347,16.0416667 16.9583333,15.651087 16.9583333,15.125 C16.9583333,14.6208333 17.369,14.2083333 17.875,14.2083333 Z M1.83333333,0 L16.5,0 C17.3708333,0 18.2416667,0.794322736 18.3265729,1.62836161 L18.3333333,1.76027199 L18.3333333,6.41666667 L1.83333333,6.41666667 L1.83333333,9.68149595 C1.83333333,10.0877126 2.22386588,10.4939292 2.64443939,10.5540204 L2.75,10.5616319 L4.58333333,10.5616319 L4.58333333,12.3219039 L1.83333333,12.3219039 C0.9625,12.3219039 0.0916666667,11.5275812 0.00676041667,10.6935423 L0,10.5616319 L0,1.76027199 C0,0.889746367 0.827291667,0.0845739567 1.69594792,0.00623302976 L1.83333333,0 L16.5,0 Z M15.5833333,1.76027199 L2.75,1.76027199 C2.29166667,1.76027199 1.83333333,2.20033999 1.83333333,2.64040799 L1.83333333,2.64040799 L1.83333333,3.66666667 L16.5,3.66666667 L16.5,2.64040799 C16.5,2.20033999 16.0416667,1.76027199 15.5833333,1.76027199 L15.5833333,1.76027199 Z" id="Accounts-and-cards"></path>
            </g>
        </g>
    </g>
</svg>