<?xml version="1.0" encoding="UTF-8"?>
<svg width="20px" height="22px" viewBox="0 0 20 22" version="1.1" xmlns="http://www.w3.org/2000/svg" xmlns:xlink="http://www.w3.org/1999/xlink">
    <!-- Generator: Sketch 57.1 (83088) - https://sketch.com -->
    <title>Navigational/Home/Brown Copy 7</title>
    <desc>Created with Sketch.</desc>
    <g id="Ny-meny-NIB" stroke="none" stroke-width="1" fill="none" fill-rule="evenodd">
        <g id="New-NIB-menu-hover-full" transform="translate(-27.000000, -414.000000)" fill="#EE7023" fill-rule="nonzero">
            <g id="Navigational/Documents/Orange" transform="translate(26.000000, 414.000000)">
                <path d="M19.25,4.58333333 C20.1666667,5.5 20.1666667,5.95833333 20.1666667,6.41666667 L20.1666667,20.1666667 C20.1515868,21.1357143 19.2957279,22 18.3333333,22 L3.66666667,22 C2.68919223,22 1.83333333,21.1357143 1.83333333,20.1666667 L1.83333333,1.83333333 C1.83333333,0.864285714 2.68919223,0 3.66666667,0 L13.75,0 C14.0219614,0 15.125,0.458333333 15.5833333,0.916666667 L19.25,4.58333333 Z M5.5,4.58333333 L5.5,6.41666667 L13.75,6.41666667 L13.75,4.58333333 L5.5,4.58333333 Z M5.5,8.25 L5.5,10.0833333 L16.5,10.0833333 L16.5,8.25 L5.5,8.25 Z M5.5,11.9166667 L5.5,13.75 L16.5,13.75 L16.5,11.9166667 L5.5,11.9166667 Z M5.5,15.5833333 L5.5,17.4166667 L11,17.4166667 L11,15.5833333 L5.5,15.5833333 Z" id="Documents"></path>
            </g>
        </g>
    </g>
</svg>