<?xml version="1.0" encoding="UTF-8"?>
<svg width="22px" height="22px" viewBox="0 0 22 22" version="1.1" xmlns="http://www.w3.org/2000/svg" xmlns:xlink="http://www.w3.org/1999/xlink">
    <!-- Generator: Sketch 57.1 (83088) - https://sketch.com -->
    <title>Navigational/Home/Brown Copy 6</title>
    <desc>Created with Sketch.</desc>
    <g id="Ny-meny-NIB" stroke="none" stroke-width="1" fill="none" fill-rule="evenodd">
        <g id="New-NIB-menu-hover-full" transform="translate(-26.000000, -368.000000)" fill="#512B2B" fill-rule="nonzero">
            <g id="Navigational/Insurance/Brown" transform="translate(26.000000, 368.000000)">
                <path d="M10.5416667,11.9405478 C11.0096899,11.9405478 11.4583333,12.3704075 11.4583333,12.8333333 L11.4583333,18.7916667 C11.502907,20.5111055 10.0199645,22 8.23701873,22 C6.47635981,22 5.04166667,20.6038744 5.04166667,18.8623914 C5.04166667,18.3994656 5.49031008,17.875 5.95833333,17.875 C6.42635659,17.875 6.875,18.3994656 6.875,18.8623914 C6.875,19.6780227 7.41240633,20.1666667 8.23701873,20.1666667 C9.06163113,20.1666667 9.625,19.6780227 9.625,18.8623914 L9.625,12.8333333 C9.625,12.3704075 10.0736434,11.9405478 10.5416667,11.9405478 Z M10.5416667,0 C11.0096899,0 11.3885659,0.453740815 11.3885659,0.916666667 L11.3885659,0.916666667 L11.3885659,2.75 C16.4476744,3.14679359 20.503876,6.97879092 21.0833333,11.9166667 L21.0833333,11.9166667 L20.625,11.9166667 C20.0678295,11.2994322 18.7984496,10.0521042 17.4166667,10.0521042 C16.0348837,10.0521042 15.2238372,11.2994322 14.6666667,11.9166667 L14.6666667,11.9166667 L13.75,11.9166667 C13.1928295,11.2994322 11.9234496,10.0521042 10.5416667,10.0521042 C9.15988372,10.0521042 7.89050388,11.2994322 7.33333333,11.9166667 L7.33333333,11.9166667 L6.41666667,11.9166667 C5.85949612,11.2994322 5.03682171,10.0521042 3.65503876,10.0521042 C2.27325581,10.0521042 1.01550388,11.2994322 0.458333333,11.9166667 L0.458333333,11.9166667 L0,11.9166667 C0.579457364,6.97879092 4.63565891,3.14679359 9.67248062,2.75 L9.67248062,2.75 L9.67248062,0.916666667 C9.67248062,0.431696727 10.0736434,0 10.5416667,0 Z" id="Combined-Shape"></path>
            </g>
        </g>
    </g>
</svg>