<?xml version="1.0" encoding="UTF-8"?>
<svg width="22px" height="22px" viewBox="0 0 22 22" version="1.1" xmlns="http://www.w3.org/2000/svg" xmlns:xlink="http://www.w3.org/1999/xlink">
    <!-- Generator: Sketch 57.1 (83088) - https://sketch.com -->
    <title>Navigational/Home/Brown Copy 3</title>
    <desc>Created with Sketch.</desc>
    <g id="Ny-meny-NIB" stroke="none" stroke-width="1" fill="none" fill-rule="evenodd">
        <g id="New-NIB-menu-hover-full" transform="translate(-26.000000, -230.000000)" fill="#512B2B" fill-rule="nonzero">
            <g id="Navigational/Loans/Brown" transform="translate(26.000000, 230.000000)">
                <path d="M21.0833333,20.1666667 L21.0833333,20.625 C21.0833333,21.0527778 20.6840741,21.8798148 20.2581975,21.9881852 L20.1666667,22 L18.3333333,22 C17.9055556,22 17.4777778,21.2014815 17.422642,20.7223704 L17.4166667,20.625 L17.4166667,20.1666667 L21.0833333,20.1666667 Z M12.8333333,20.1666667 L12.8333333,20.625 C12.8333333,21.0527778 12.4340741,21.8798148 12.0081975,21.9881852 L11.9166667,22 L10.0833333,22 C9.65555556,22 9.22777778,21.2014815 9.17264198,20.7223704 L9.16666667,20.625 L9.16666667,20.1666667 L12.8333333,20.1666667 Z M18.3333333,10.0833333 C18.6592593,10.0833333 19.0141564,10.2064609 19.1920073,10.446278 L19.25,10.5416667 L20.625,13.75 C20.6537582,13.8362745 20.8859804,14.1418301 21.3216667,14.6666667 C21.4963725,14.7986667 21.9060578,15.2425167 21.9862478,15.5037117 L22,15.5833333 L22,18.3333333 C22,18.7589286 21.6048044,19.1845238 21.1813806,19.2431517 L21.0833333,19.25 L9.16666667,19.25 C8.74107143,19.25 8.31547619,18.8548044 8.25684828,18.4313806 L8.25,18.3333333 L8.25,15.5833333 C8.25,15.3460784 8.75686275,14.8176472 8.95098039,14.6666667 C9.33333333,14.1895425 9.55377302,13.8936423 9.61229947,13.7789661 L9.625,13.75 L11,10.5416667 C11.1342048,10.2732571 11.4643912,10.1198802 11.7936308,10.0891101 L11.9166667,10.0833333 L18.3333333,10.0833333 Z M19.25,15.5833333 L18.3333333,15.5833333 C17.9127451,15.5833333 17.4828581,16.0017757 17.4235916,16.4069342 L17.4166667,16.5 L17.4166667,16.9583333 C17.4166667,17.3789216 17.835109,17.8088085 18.2402675,17.8680751 L18.3333333,17.875 L19.25,17.875 C19.6705882,17.875 20.1004752,17.4565576 20.1597418,17.0513991 L20.1666667,16.9583333 L20.1666667,16.5 C20.1666667,16.0470588 19.6813725,15.5833333 19.25,15.5833333 Z M11.9166667,15.5833333 L11,15.5833333 C10.5794118,15.5833333 10.1495248,16.0017757 10.0902582,16.4069342 L10.0833333,16.5 L10.0833333,16.9583333 C10.0833333,17.3789216 10.5017757,17.8088085 10.9069342,17.8680751 L11,17.875 L11.9166667,17.875 C12.3372549,17.875 12.7671419,17.4565576 12.8264084,17.0513991 L12.8333333,16.9583333 L12.8333333,16.5 C12.8333333,16.0470588 12.3480392,15.5833333 11.9166667,15.5833333 Z M9.40037918,5.5 L12.149442,8.24806976 L11.8467865,8.24806976 C10.7587903,8.24806976 9.57504491,9.01624807 9.25775146,9.93484497 C8.45656331,11.8067271 8.0375434,12.7862244 8.00069173,12.8733368 C7.97260537,12.9397292 7.65867615,13.3852692 7.25686518,13.7516505 C7.07127771,13.9134047 6.50716215,14.7208011 6.42752108,15.2518744 L6.41813533,15.369105 L6.41813533,16.5 L2.30833944,16.5 L2.29166667,12.5844727 L9.40037918,5.5 Z M17.8718669,11.9166667 L12.5529412,11.9166667 C12.2229412,11.9166667 12.2030441,12.0083873 12.1237471,12.2783078 L12.0946078,12.375 L11.1779412,14.6666667 L19.2468669,14.6666667 L18.3302002,12.375 C18.2007884,12.0514706 18.2169649,11.9166667 17.8718669,11.9166667 Z M9.39583333,0 L17.6682518,8.25 L14.4001359,8.25 L9.39583333,3.25925926 L1.63405797,11 L0,9.37037037 L9.39583333,0 Z" id="Loans"></path>
            </g>
        </g>
    </g>
</svg>