<?xml version="1.0" encoding="UTF-8"?>
<svg width="22px" height="21px" viewBox="0 0 22 21" version="1.1" xmlns="http://www.w3.org/2000/svg" xmlns:xlink="http://www.w3.org/1999/xlink">
    <!-- Generator: Sketch 57.1 (83088) - https://sketch.com -->
    <title>Navigational/Home/Brown Copy 5</title>
    <desc>Created with Sketch.</desc>
    <g id="Ny-meny-NIB" stroke="none" stroke-width="1" fill="none" fill-rule="evenodd">
        <g id="New-NIB-menu-hover-full" transform="translate(-26.000000, -322.000000)" fill="#512B2B">
            <g id="Navigational/Pension/Brown" transform="translate(26.000000, 322.000000)">
                <path d="M20.3153004,15.5882848 L21.5573567,17.7585199 C21.9968173,18.5263858 21.7360219,19.5082521 20.9748539,19.9515797 C20.7329263,20.0924857 20.458494,20.1666667 20.1791401,20.1666667 L1.83333333,20.1666667 C0.916666667,20.1666667 0.229166667,19.4791667 0.229166667,18.5612355 C0.229166667,18.2794234 0.493328841,17.6453931 0.633005778,17.4013367 L1.68443388,15.5882848 L20.3153004,15.5882848 Z M16.6398449,9.1661911 L19.2644006,13.7520561 L2.73533366,13.7520561 L5.35988938,9.1661911 L16.6398449,9.1661911 Z M6.40910008,7.33291372 L9.62165049,1.71965034 C10.0611111,0.951784434 11.0344129,0.688694145 11.7955809,1.13202173 C12.0375084,1.27292775 12.2384068,1.47559395 12.3780838,1.71965034 L15.5906342,7.33291372 L6.40910008,7.33291372 Z" id="Pension"></path>
            </g>
        </g>
    </g>
</svg>