<?xml version="1.0" encoding="UTF-8"?>
<svg width="22px" height="21px" viewBox="0 0 22 21" version="1.1" xmlns="http://www.w3.org/2000/svg" xmlns:xlink="http://www.w3.org/1999/xlink">
    <!-- Generator: Sketch 57.1 (83088) - https://sketch.com -->
    <title>Navigational/Home/Brown Copy 10</title>
    <desc>Created with Sketch.</desc>
    <g id="Ny-meny-NIB" stroke="none" stroke-width="1" fill="none" fill-rule="evenodd">
        <g id="New-NIB-menu-hover-full" transform="translate(-26.000000, -552.000000)" fill="#EE7023" fill-rule="nonzero">
            <g id="Navigational/Settings/Orange" transform="translate(26.000000, 552.000000)">
                <path d="M18.9637776,10.4192792 C18.9096956,9.57056475 18.7218438,8.75892575 18.4209718,8.00535668 L20.0138425,5.74639318 L18.0615994,3.26800905 L15.4998726,4.34364291 C14.8338924,3.87394648 14.0919769,3.50788255 13.2957587,3.26800905 L12.5648309,0.657844217 L9.29571699,0.657844217 L8.74804905,3.26800905 C7.95183087,3.50788255 7.20991533,3.87394648 6.54393521,4.34364291 L3.90690322,3.3179189 L2.00672961,5.74639318 L3.57013105,8.00535668 C3.26925903,8.75892575 3.08140716,9.57034141 3.02732525,10.4192792 L0.678333342,11.7995449 L1.25206518,14.6540635 L4.08783592,14.8994327 C4.49356063,15.6244135 5.00877362,16.2783703 5.61316658,16.835395 L5.05054989,19.4930821 L7.97284879,20.9266313 L9.81925951,18.8451747 C10.2176997,18.9094983 10.6260733,18.9438936 11.0423937,18.9438936 C11.458714,18.9438936 11.8670877,18.9094983 12.2655279,18.845398 L13.9923805,20.9266313 L16.9791872,19.4930821 L16.3764393,16.835395 C16.981053,16.2783703 17.496266,15.6244135 17.90177,14.8994327 L20.6999119,14.6540635 L21.3312979,11.7995449 L18.9637776,10.4192792 Z M11,15.5833333 C8.468625,15.5833333 6.41666667,13.531375 6.41666667,11 C6.41666667,8.468625 8.468625,6.41666667 11,6.41666667 C13.531375,6.41666667 15.5833333,8.468625 15.5833333,11 C15.5833333,13.531375 13.531375,15.5833333 11,15.5833333 Z" id="Settings"></path>
            </g>
        </g>
    </g>
</svg>