<?xml version="1.0" encoding="UTF-8"?>
<svg width="22px" height="22px" viewBox="0 0 22 22" version="1.1" xmlns="http://www.w3.org/2000/svg" xmlns:xlink="http://www.w3.org/1999/xlink">
    <!-- Generator: Sketch 57.1 (83088) - https://sketch.com -->
    <title>Navigational/Home/Brown Copy 9</title>
    <desc>Created with Sketch.</desc>
    <g id="Ny-meny-NIB" stroke="none" stroke-width="1" fill="none" fill-rule="evenodd">
        <g id="New-NIB-menu-hover-full" transform="translate(-26.000000, -506.000000)" fill="#512B2B" fill-rule="nonzero">
            <g id="Navigational/Refill/Brown" transform="translate(26.000000, 506.000000)">
                <path d="M18.3333333,19.25 C18.3333333,20.4574373 17.2983871,21.5416667 16.0416667,21.5416667 C14.8373096,21.5416667 13.8366305,20.5232765 13.7553315,19.3973896 L13.75,19.25 L18.3333333,19.25 Z M10.0833333,19.25 C10.0833333,20.4574373 9.0483871,21.5416667 7.79166667,21.5416667 C6.58730959,21.5416667 5.58663054,20.5232765 5.50533152,19.3973896 L5.5,19.25 L10.0833333,19.25 Z M4.41403646,0.916666667 L4.88315411,3.66666667 L22,3.66666667 L21.0833333,11.9166667 L6.93579569,14.7352909 L7.25240885,16.5 L18.3333333,16.5 L18.3333333,18.3333333 L5.5,18.3333333 L2.75,2.75 L0,2.75 L0,0.916666667 L4.41403646,0.916666667 Z M12.8333333,5.5 L11,5.5 L11,7.33333333 L9.20980392,7.33333333 L9.20980392,9.16666667 L11,9.16666667 L11,11 L12.8333333,11 L12.8333333,9.16666667 L14.6666667,9.16666667 L14.6666667,7.33333333 L12.8333333,7.23627451 L12.8333333,5.5 Z" id="Refill"></path>
            </g>
        </g>
    </g>
</svg>